# xmcd CD database file
#
# Track frame offsets:
#	150
#	15857
#	31237
#	48875
#	64280
#	82220
#	97090
#	124250
#	141267
#	156015
#	172322
#
# Disc length: 2555 seconds
#
# Revision: 1
# Processed by: cddbd v1.5.1PL0 Copyright (c) Steve Scherf et al.
# Submitted via: CDex 1.51
#
DISCID=9509f90b
DTITLE=Mick Taylor featuring Sasha - Shadow Man
DYEAR=2003
DGENRE=Blues
TTITLE0=Turn off the light
TTITLE1=Hurt
TTITLE2=Just another heartache
TTITLE3=Shadow woman
TTITLE4=Don´t cry little woman
TTITLE5=Honky tonk woman
TTITLE6=Shattered
TTITLE7=Happy man
TTITLE8=Don´t wait too long
TTITLE9=This might
TTITLE10=Someday
EXTD=YEAR: 2003
EXTT0=
EXTT1=
EXTT2=
EXTT3=
EXTT4=
EXTT5=
EXTT6=
EXTT7=
EXTT8=
EXTT9=
EXTT10=
PLAYORDER=
